<?xml version="1.0" standalone="no"?>
<!DOCTYPE svg PUBLIC "-//W3C//DTD SVG 20010904//EN"
 "http://www.w3.org/TR/2001/REC-SVG-20010904/DTD/svg10.dtd">
<svg version="1.0" xmlns="http://www.w3.org/2000/svg"
 width="512.000000pt" height="512.000000pt" viewBox="0 0 512.000000 512.000000"
 preserveAspectRatio="xMidYMid meet">
<metadata>
Created by potrace 1.14, written by Peter Selinger 2001-2017
</metadata>
<g transform="translate(0.000000,512.000000) scale(0.100000,-0.100000)"
fill="#000000" stroke="none">
<path d="M2378 5115 c-2 -1 -39 -5 -82 -9 -44 -4 -82 -9 -85 -11 -4 -2 -34 -7
-66 -10 -117 -14 -472 -111 -499 -136 -6 -5 -16 -9 -23 -9 -15 0 -131 -52
-228 -101 -178 -91 -401 -243 -530 -363 l-60 -55 -80 -1 c-121 -2 -150 -9
-191 -47 -62 -57 -68 -77 -74 -223 l-5 -135 -47 -70 c-93 -141 -201 -359 -261
-530 -29 -80 -74 -237 -81 -278 -3 -15 -7 -35 -10 -45 -3 -9 -7 -34 -11 -56
-3 -21 -7 -41 -9 -45 -4 -6 -12 -72 -26 -201 -8 -85 -5 -454 4 -515 4 -22 13
-80 21 -130 58 -355 205 -728 404 -1020 14 -20 21 -46 21 -77 0 -82 38 -128
106 -128 20 0 41 -15 83 -62 396 -440 897 -717 1486 -822 17 -3 57 -9 90 -12
33 -4 64 -9 69 -12 16 -9 427 -10 501 -1 135 16 168 21 189 25 12 2 37 7 56
10 212 38 460 122 670 229 l65 32 147 -2 c92 -1 178 3 228 12 489 84 871 467
953 955 14 81 15 290 3 373 -5 28 -22 98 -40 156 -22 72 -30 114 -25 135 40
172 45 200 55 284 3 30 8 64 11 75 11 47 9 437 -3 535 -43 357 -120 610 -274
908 -256 495 -635 865 -1140 1116 -204 101 -474 192 -650 220 -80 13 -168 26
-210 32 -46 6 -446 14 -452 9z"/>
</g>
</svg>
